<svg width="196" height="195" viewBox="0 0 196 195" fill="none" xmlns="http://www.w3.org/2000/svg">
<rect x="0.59375" width="194.814" height="194.814" rx="97.4071" fill="#F9F9FF"/>
<path d="M98.242 126.646C86.5229 126.646 74.8038 126.646 63.0847 126.646C62.5123 126.646 61.9324 126.646 61.3575 126.587C58.4236 126.313 57.2441 124.337 58.4951 121.664C59.5809 119.357 60.7653 117.109 61.9151 114.827C67.3437 104.08 72.7722 93.3347 78.2008 82.5911C78.3686 82.2629 78.5438 81.9347 78.7387 81.6213C80.1057 79.4302 82.3265 79.1217 84.076 81.0119C85.3097 82.3345 86.3535 83.8199 87.454 85.2535C93.0471 92.5623 98.6401 99.8744 104.233 107.19C106.676 110.373 109.753 110.546 112.623 107.683C114.047 106.262 115.438 104.804 116.879 103.395C119.478 100.853 122.426 101.006 124.548 103.97C128.807 109.916 132.96 115.942 137.133 121.948C137.459 122.419 137.709 122.939 137.873 123.488C138.278 124.867 137.705 125.978 136.306 126.345C135.429 126.555 134.528 126.652 133.626 126.634C121.838 126.654 110.043 126.658 98.242 126.646Z" fill="#D4D2E3"/>
<path d="M124.524 67.7588C124.521 70.0527 123.837 72.294 122.558 74.1986C121.28 76.1032 119.465 77.5854 117.343 78.4571C115.221 79.3289 112.889 79.5511 110.64 79.0955C108.392 78.6398 106.33 77.5269 104.715 75.8978C103.1 74.2688 102.005 72.1969 101.57 69.9448C101.134 67.6928 101.376 65.362 102.267 63.248C103.157 61.134 104.655 59.3319 106.571 58.0703C108.486 56.8087 110.734 56.1444 113.027 56.1615C116.082 56.2003 118.999 57.4378 121.149 59.6072C123.3 61.7766 124.512 64.7042 124.524 67.7588Z" fill="#D4D2E3"/>
</svg>
